<mxfile host="Electron" modified="2024-07-11T09:29:18.457Z" agent="Mozilla/5.0 (Windows NT 10.0; Win64; x64) AppleWebKit/537.36 (KHTML, like Gecko) draw.io/21.6.1 Chrome/112.0.5615.204 Electron/24.6.1 Safari/537.36" etag="wke4teT-IGznWGT9LCIa" version="21.6.1" type="device">
  <diagram name="Page-1" id="gpHJ5zgvHELC0qRU_qGC">
    <mxGraphModel dx="1079" dy="433" grid="1" gridSize="10" guides="1" tooltips="1" connect="1" arrows="1" fold="1" page="1" pageScale="1" pageWidth="3300" pageHeight="4681" math="0" shadow="0">
      <root>
        <mxCell id="0" />
        <mxCell id="1" parent="0" />
        <mxCell id="z4j3zkutHY61NbN8Nx1_-24" style="edgeStyle=orthogonalEdgeStyle;rounded=0;orthogonalLoop=1;jettySize=auto;html=1;" edge="1" parent="1" source="z4j3zkutHY61NbN8Nx1_-23" target="z4j3zkutHY61NbN8Nx1_-6">
          <mxGeometry relative="1" as="geometry" />
        </mxCell>
        <mxCell id="z4j3zkutHY61NbN8Nx1_-23" value="" style="rounded=0;whiteSpace=wrap;html=1;fillColor=#f5f5f5;fontColor=#333333;strokeColor=#666666;" vertex="1" parent="1">
          <mxGeometry x="680" y="240" width="500" height="320" as="geometry" />
        </mxCell>
        <mxCell id="z4j3zkutHY61NbN8Nx1_-17" style="edgeStyle=orthogonalEdgeStyle;rounded=0;orthogonalLoop=1;jettySize=auto;html=1;entryX=0;entryY=0.5;entryDx=0;entryDy=0;" edge="1" parent="1" source="z4j3zkutHY61NbN8Nx1_-1" target="z4j3zkutHY61NbN8Nx1_-23">
          <mxGeometry relative="1" as="geometry">
            <mxPoint x="630" y="399.9999999999999" as="targetPoint" />
          </mxGeometry>
        </mxCell>
        <mxCell id="z4j3zkutHY61NbN8Nx1_-1" value="Initialize&lt;br&gt;Stack, nextPtr" style="rounded=0;whiteSpace=wrap;html=1;" vertex="1" parent="1">
          <mxGeometry x="500" y="360" width="100" height="80" as="geometry" />
        </mxCell>
        <mxCell id="z4j3zkutHY61NbN8Nx1_-12" style="edgeStyle=orthogonalEdgeStyle;rounded=0;orthogonalLoop=1;jettySize=auto;html=1;" edge="1" parent="1" source="z4j3zkutHY61NbN8Nx1_-2" target="z4j3zkutHY61NbN8Nx1_-5">
          <mxGeometry relative="1" as="geometry" />
        </mxCell>
        <mxCell id="z4j3zkutHY61NbN8Nx1_-2" value="StackTop is&lt;br&gt;Terminal" style="rounded=0;whiteSpace=wrap;html=1;" vertex="1" parent="1">
          <mxGeometry x="740" y="440" width="100" height="80" as="geometry" />
        </mxCell>
        <mxCell id="z4j3zkutHY61NbN8Nx1_-11" style="edgeStyle=orthogonalEdgeStyle;rounded=0;orthogonalLoop=1;jettySize=auto;html=1;" edge="1" parent="1" source="z4j3zkutHY61NbN8Nx1_-3" target="z4j3zkutHY61NbN8Nx1_-4">
          <mxGeometry relative="1" as="geometry" />
        </mxCell>
        <mxCell id="z4j3zkutHY61NbN8Nx1_-3" value="StackTop is&lt;br&gt;NonTerminal" style="rounded=0;whiteSpace=wrap;html=1;" vertex="1" parent="1">
          <mxGeometry x="740" y="280" width="100" height="80" as="geometry" />
        </mxCell>
        <mxCell id="z4j3zkutHY61NbN8Nx1_-4" value="Using parseTable&lt;br&gt;Find which RHS to use&lt;br&gt;Replace old NonTerminal with new RHS" style="rounded=0;whiteSpace=wrap;html=1;" vertex="1" parent="1">
          <mxGeometry x="880" y="280" width="240" height="80" as="geometry" />
        </mxCell>
        <mxCell id="z4j3zkutHY61NbN8Nx1_-5" value="Try matching stackTop(Terminal)&lt;br&gt;with next tokens&lt;br&gt;&lt;br&gt;Update stack and nextPtr" style="rounded=0;whiteSpace=wrap;html=1;" vertex="1" parent="1">
          <mxGeometry x="880" y="440" width="240" height="80" as="geometry" />
        </mxCell>
        <mxCell id="z4j3zkutHY61NbN8Nx1_-6" value="Stack empty&lt;br&gt;nextPtr points to $&lt;br&gt;Accept" style="rounded=0;whiteSpace=wrap;html=1;fillColor=#d5e8d4;strokeColor=#82b366;" vertex="1" parent="1">
          <mxGeometry x="1240" y="370" width="120" height="60" as="geometry" />
        </mxCell>
        <mxCell id="z4j3zkutHY61NbN8Nx1_-25" value="Loop while stack not empty" style="text;html=1;strokeColor=none;fillColor=none;align=center;verticalAlign=middle;whiteSpace=wrap;rounded=0;" vertex="1" parent="1">
          <mxGeometry x="850" y="385" width="180" height="30" as="geometry" />
        </mxCell>
      </root>
    </mxGraphModel>
  </diagram>
</mxfile>
